<svg width="1301" height="337" viewBox="0 0 1301 337" fill="none" xmlns="http://www.w3.org/2000/svg">
<path d="M1073 264V20H1136V264H1073Z" fill="white"/>
<path d="M1073 319V277H1136V319H1073Z" fill="white"/>
<path d="M1056.02 315H933.792V19.971H997.013V247.565H1056.02V315Z" fill="white"/>
<path d="M843.831 319C763.654 319 769.14 265.875 769.14 206.5C769.14 144 762.389 94 842.565 94C922.742 94 916.835 144 916.835 206.5C916.835 265.875 924.008 319 843.831 319ZM842.987 138.375C831.172 138.375 832.438 158.688 832.438 206.5C832.438 254.313 831.172 275.25 842.987 275.25C855.225 275.25 853.537 254.313 853.537 206.5C853.537 158.688 854.803 138.375 842.987 138.375Z" fill="white"/>
<path d="M636 315V20H769V95.8571H706V144.321H760.133V203.321H706V315H636Z" fill="white"/>
<path d="M484 131.143V81H623V131.143H585.398V315H522.024V131.143H484Z" fill="white"/>
<path d="M409.67 257.631C409.67 233.087 404.609 231.017 394.064 230.721H390.268V315H327V108H398.282C465.768 108 475.047 142.894 475.047 168.621C475.047 190.504 461.55 213.57 437.508 215.936V216.527C466.19 218.893 472.517 241.663 472.517 257.927C472.517 288.386 469.986 297.553 478 315H409.67C409.67 299.031 409.67 282.471 409.67 257.631ZM390.268 146.443V195.236H394.486C408.405 195.236 411.779 183.999 411.779 170.1C411.779 156.497 408.405 146.443 394.486 146.443H390.268Z" fill="white"/>
<path d="M236.831 277C156.654 277 162.14 211.597 162.14 138.5C162.14 61.5556 155.389 0 235.566 0C315.743 0 309.835 61.5556 309.835 138.5C309.835 211.597 317.008 277 236.831 277ZM235.988 54.6306C224.172 54.6306 225.438 79.6375 225.438 138.5C225.438 197.363 224.172 223.139 235.988 223.139C248.225 223.139 246.537 197.363 246.537 138.5C246.537 79.6375 247.803 54.6306 235.988 54.6306Z" fill="white"/>
<path d="M68.5897 234.493H64.8205V315H2V94H72.7778C139.786 94 149 135.99 149 163.457C149 187.136 140.205 234.493 68.5897 234.493ZM64.8205 135.043V196.607H69.0085C82.8291 196.607 86.1795 178.296 86.1795 163.457C86.1795 148.934 82.8291 135.043 69.0085 135.043H64.8205Z" fill="white"/>
<path d="M1159.86 337H1293.52C1284.95 309.754 1266.39 293 1226.48 293C1186.56 293 1168.22 309.754 1159.86 337Z" fill="white"/>
<path d="M168.856 337H302.515C293.945 309.754 275.391 293 235.476 293C195.56 293 177.216 309.754 168.856 337Z" fill="white"/>
<path d="M0 20V76.029H63.2205V20H0Z" fill="white"/>
<path d="M324 20V76.029H387.221V20H324Z" fill="white"/>
<path d="M406.608 20V76.029H474.886C468.692 56.7939 468.802 44.62 469.17 20H406.608Z" fill="white"/>
<path d="M773.681 20C780.829 53.9214 798.828 76.4584 843.74 76.4584C888.652 76.4584 906.122 53.9214 912.804 20H773.681Z" fill="white"/>
<path d="M1155.66 20C1152.77 41.585 1152.91 67.1465 1153.07 94.9389C1153.1 101.348 1153.14 107.875 1153.14 114.5C1153.14 119.71 1153.12 124.887 1153.1 130.015C1152.79 209.304 1152.53 277 1227.83 277C1301.85 277 1301.42 211.608 1300.92 134.087C1300.88 127.632 1300.83 121.093 1300.83 114.5C1300.83 108.611 1300.86 102.798 1300.88 97.0776C1301.01 68.4578 1301.12 42.1376 1298.03 20H1232.79C1237.68 28.8453 1237.64 53.0754 1237.56 96.2341C1237.55 101.984 1237.54 108.07 1237.54 114.5C1237.54 122.471 1237.56 129.925 1237.58 136.875C1237.74 190.141 1237.81 213.806 1226.99 213.806C1216.27 213.806 1216.32 188.926 1216.42 132.769C1216.43 127.01 1216.44 120.923 1216.44 114.5C1216.44 108.07 1216.43 101.984 1216.42 96.2341C1216.34 53.0754 1216.29 28.8453 1221.18 20H1155.66Z" fill="white"/>
</svg>
