<svg width="1407" height="378" viewBox="0 0 1407 378" fill="none" xmlns="http://www.w3.org/2000/svg">
<path d="M2.1647 107.883V42.9426H144.602V107.883H106.07V346H41.1292V107.883H2.1647ZM230.689 350.329C148.43 350.329 154.059 276.73 154.059 194.471C154.059 107.883 147.132 38.6132 229.39 38.6132C311.649 38.6132 305.587 107.883 305.587 194.471C305.587 276.73 312.947 350.329 230.689 350.329ZM229.823 100.091C217.701 100.091 219 128.232 219 194.471C219 260.711 217.701 289.718 229.823 289.718C242.378 289.718 240.647 260.711 240.647 194.471C240.647 128.232 241.945 100.091 229.823 100.091ZM475.228 42.9426V346H414.617V231.704L383.878 161.135V346H323.267V42.9426H383.878L414.617 105.719V42.9426H475.228ZM659.82 42.9426L605.702 249.455V346H536.432V249.455L488.809 42.9426H562.408L571.067 153.775H575.396L590.549 42.9426H659.82Z" fill="#FF0000"/>
<path d="M767.671 262.01C767.671 226.076 762.476 223.045 751.653 222.612H747.756V346H682.815V42.9426H755.982C825.252 42.9426 834.777 94.0294 834.777 131.695C834.777 163.733 820.923 197.502 796.245 200.965V201.831C825.685 205.295 832.179 238.631 832.179 262.443C832.179 307.035 829.582 320.457 837.807 346H767.671C767.671 322.621 767.671 298.377 767.671 262.01ZM747.756 99.2247V170.66H752.085C766.372 170.66 769.836 154.208 769.836 133.86C769.836 113.945 766.372 99.2247 752.085 99.2247H747.756ZM925.511 350.329C843.253 350.329 848.881 276.73 848.881 194.471C848.881 107.883 841.521 38.6132 924.213 38.6132C1006.47 38.6132 1000.41 107.883 1000.41 194.471C1000.41 276.73 1007.77 350.329 925.511 350.329ZM924.646 100.091C912.523 100.091 913.822 128.232 913.822 194.471C913.822 260.711 912.523 289.718 924.646 289.718C937.201 289.718 935.469 260.711 935.469 194.471C935.469 128.232 936.768 100.091 924.646 100.091ZM1168.32 42.9426H1229.36L1228.93 346H1163.99V222.179L1136.71 312.231H1110.74L1083.03 222.179V346H1018.09V42.9426H1078.7L1122.43 182.349H1125.03L1168.32 42.9426ZM1323.78 350.329C1241.52 350.329 1247.15 276.73 1247.15 194.471C1247.15 107.883 1239.79 38.6132 1322.48 38.6132C1404.74 38.6132 1398.68 107.883 1398.68 194.471C1398.68 276.73 1406.04 350.329 1323.78 350.329ZM1322.92 100.091C1310.79 100.091 1312.09 128.232 1312.09 194.471C1312.09 260.711 1310.79 289.718 1322.92 289.718C1335.47 289.718 1333.74 260.711 1333.74 194.471C1333.74 128.232 1335.04 100.091 1322.92 100.091Z" fill="#FF0000"/>
</svg>
