<svg width="740" height="205" viewBox="0 0 740 205" fill="none" xmlns="http://www.w3.org/2000/svg">
<path d="M5.94237 190V23.6136H41.5966V190H5.94237ZM136.959 23.6136V190H103.681V127.249L86.8051 88.5043V190H53.5278V23.6136H86.8051L103.681 58.0793V23.6136H136.959ZM144.177 59.2678V23.6136H222.378V59.2678H201.224V190H165.569V59.2678H144.177ZM229.71 190V23.6136H301.018V59.2678H265.364V90.1682H296.264V123.445H265.364V154.346H301.018V190H229.71ZM357.077 143.887C357.077 124.159 354.225 122.257 348.282 122.257H346.143V190H310.489V23.6136H350.659C388.691 23.6136 393.92 51.6616 393.92 72.341C393.92 89.9305 386.314 108.471 372.765 110.372V110.848C388.928 112.749 392.494 131.052 392.494 144.125C392.494 168.607 391.067 175.738 395.584 190H357.077C357.077 177.164 357.077 163.854 357.077 143.887ZM346.143 54.5139V93.7336H348.52C356.364 93.7336 358.266 84.7012 358.266 73.5295C358.266 62.5955 356.364 54.5139 348.52 54.5139H346.143ZM403.803 190V23.6136H475.111V59.2678H439.457V90.1682H470.357V123.445H439.457V154.346H475.111V190H403.803ZM482.205 62.5955C482.205 31.6952 498.844 21.2366 523.564 21.2366C548.284 21.2366 564.923 31.6952 564.923 62.5955V71.3903L529.744 74.4803V60.694C529.744 58.317 529.744 52.6124 523.801 52.6124C518.097 52.6124 517.859 58.317 517.859 60.694C517.859 98.2498 564.923 106.807 564.923 151.018C564.923 181.918 548.284 192.377 523.326 192.377C498.606 192.377 482.205 181.918 482.205 151.018V141.035L517.384 136.994V153.157C517.384 155.534 517.384 161.477 523.326 161.477C529.031 161.477 529.268 155.534 529.268 153.157C529.268 122.257 482.205 106.807 482.205 62.5955ZM569.66 59.2678V23.6136H647.862V59.2678H626.707V190H591.052V59.2678H569.66ZM652.816 62.5955C652.816 31.6952 669.455 21.2366 694.175 21.2366C718.895 21.2366 735.534 31.6952 735.534 62.5955V71.3903L700.355 74.4803V60.694C700.355 58.317 700.355 52.6124 694.413 52.6124C688.708 52.6124 688.47 58.317 688.47 60.694C688.47 98.2498 735.534 106.807 735.534 151.018C735.534 181.918 718.895 192.377 693.937 192.377C669.217 192.377 652.816 181.918 652.816 151.018V141.035L687.995 136.994V153.157C687.995 155.534 687.995 161.477 693.937 161.477C699.642 161.477 699.88 155.534 699.88 153.157C699.88 122.257 652.816 106.807 652.816 62.5955Z" fill="white"/>
<path d="M223.433 147.408C223.04 147.408 222.704 147.343 222.424 147.212C222.331 147.175 222.125 147.054 221.807 146.848C221.882 145.242 222.004 143.523 222.172 141.693C222.657 136.855 222.994 133.997 223.18 133.119C223.479 130.915 223.862 128.374 224.329 125.498C224.628 123.63 224.806 122.593 224.862 122.388C224.918 122.163 225.002 121.668 225.114 120.903C225.244 120.118 225.618 118.185 226.235 115.103C226.739 112.413 227.168 110.19 227.523 108.434C227.897 106.678 228.28 104.866 228.672 102.998C229.064 101.018 229.737 97.9082 230.69 93.668C232.053 87.3918 233.688 80.2469 235.593 72.2335C235.63 72.1401 235.864 71.2155 236.293 69.4596C236.443 68.8432 236.517 68.507 236.517 68.4509C236.517 68.3949 236.275 68.3669 235.789 68.3669C234.967 68.3669 230.914 68.4509 223.629 68.6191C217.409 68.8245 212.58 69.002 209.143 69.1514C204.099 69.3569 200.905 69.4596 199.56 69.4596C196.011 69.4596 194.078 69.3008 193.76 68.9833C193.144 68.3669 192.836 67.7038 192.836 66.9939C192.836 66.8258 192.864 66.6857 192.92 66.5737C192.957 66.4616 194.218 66.3869 196.702 66.3495C199.187 66.3122 202.241 66.1814 205.865 65.9572C212.683 65.5276 218.94 65.2381 224.637 65.0887C233.211 64.9579 237.498 64.8365 237.498 64.7244C237.61 64.5003 237.732 64.1267 237.862 63.6037C238.516 61.4555 238.955 60.2507 239.179 59.9892C239.291 59.8584 239.487 59.7931 239.768 59.7931C240.571 59.7931 241.271 60.1013 241.869 60.7177C242.149 60.9979 242.289 61.2314 242.289 61.4182C242.289 61.605 242.028 62.707 241.505 64.7244C253.871 64.575 260.511 64.4816 261.426 64.4442C266.769 64.3321 273.204 64.2761 280.731 64.2761C290.669 64.2761 295.908 64.3788 296.45 64.5843C296.73 64.6777 296.982 65.0233 297.207 65.621C297.356 66.0506 297.431 66.4896 297.431 66.9379C297.431 67.1247 297.403 67.2741 297.347 67.3862C297.235 67.5917 296.618 67.6944 295.497 67.6944C294.862 67.6944 293.863 67.6757 292.499 67.6384C290.669 67.6197 288.1 67.6104 284.794 67.6104C278.2 67.6104 273.745 67.6477 271.429 67.7224L256.691 67.9466C254.767 68.0026 251.368 68.068 246.492 68.1427C242.607 68.1801 240.618 68.2548 240.524 68.3669C240.3 68.6844 239.347 72.467 237.666 79.7146C237.405 80.8914 237.078 82.2643 236.686 83.8334C236.163 85.8881 234.948 91.3238 233.043 100.14C231.717 106.136 230.4 112.469 229.092 119.137C227.15 129.766 225.889 138.47 225.31 145.251C225.235 146.036 225.16 146.549 225.086 146.792C224.955 147.203 224.404 147.408 223.433 147.408ZM251.087 121.855H250.135C246.772 121.855 244.447 120.762 243.158 118.577C242.542 117.531 242.233 116.56 242.233 115.663C242.233 114.953 242.448 114.187 242.878 113.365C243.158 112.842 243.494 112.366 243.886 111.936C245.101 110.685 246.408 110.059 247.809 110.059C248.612 110.059 249.444 110.265 250.303 110.676C250.863 110.956 251.377 111.348 251.844 111.852C252.516 112.6 252.853 113.319 252.853 114.01C252.853 114.813 252.199 115.523 250.891 116.139C249.005 117.073 247.389 117.54 246.044 117.54C245.876 117.54 245.465 117.503 244.811 117.428V117.764C244.811 118.586 246.184 118.997 248.93 118.997C252.89 118.997 259.558 117.699 268.935 115.103C271.028 114.524 272.363 114.122 272.942 113.898C273.278 113.786 273.577 113.73 273.839 113.73C274.343 113.73 274.726 114.038 274.988 114.654C275.174 115.084 275.268 115.42 275.268 115.663C275.268 115.906 275.184 116.111 275.016 116.279C274.324 116.858 269.916 118.157 261.791 120.174C259.288 120.809 257.27 121.248 255.739 121.491C254.207 121.715 252.656 121.836 251.087 121.855ZM246.1 114.71L247.193 114.374C248.65 113.907 249.668 113.412 250.247 112.889H249.294C248.528 112.889 247.716 113.216 246.856 113.87C246.688 113.982 246.539 114.103 246.408 114.234C246.277 114.365 246.184 114.467 246.128 114.542C246.091 114.617 246.072 114.664 246.072 114.682C246.072 114.701 246.081 114.71 246.1 114.71ZM279.302 121.323C278.63 121.323 278.079 121.304 277.649 121.267C276.211 121.136 274.978 120.548 273.951 119.502C272.98 118.549 272.494 117.559 272.494 116.532C272.494 115.542 272.867 114.524 273.615 113.477C274.119 112.768 274.689 112.245 275.324 111.908C275.623 111.722 275.903 111.628 276.164 111.628C276.519 111.628 276.958 111.871 277.481 112.357C278.06 112.936 278.35 113.44 278.35 113.87C278.35 114.187 278.247 114.346 278.042 114.346C277.388 114.346 276.622 115.224 275.744 116.98C275.52 117.447 275.408 117.802 275.408 118.045C275.408 118.213 275.483 118.334 275.632 118.409C275.819 118.521 276.678 118.577 278.21 118.577C279.368 118.577 280.554 118.493 281.768 118.325C283.487 118.063 286.494 117.353 290.79 116.195C294.227 115.28 296.917 114.524 298.86 113.926C299.644 113.664 300.223 113.534 300.597 113.534C300.914 113.534 301.195 113.646 301.438 113.87C302.129 114.43 302.474 114.962 302.474 115.467C302.474 115.56 302.456 115.644 302.418 115.719C302.399 115.924 300.307 116.606 296.142 117.764C291.229 119.165 287.587 120.109 285.214 120.594C282.861 121.08 280.89 121.323 279.302 121.323ZM300.541 129.897H300.093C299.514 129.897 299.121 129.785 298.916 129.56C298.785 129.43 298.72 129.121 298.72 128.636C298.72 127.833 298.822 126.469 299.028 124.545C299.775 117.111 300.821 109.48 302.166 101.653C304.053 90.7447 305.874 82.9835 307.63 78.3697C308.078 77.2115 308.405 76.5578 308.61 76.4083C308.76 76.3523 308.919 76.3243 309.087 76.3243C309.292 76.3243 309.526 76.3616 309.787 76.4364C310.292 76.5858 310.712 76.8193 311.048 77.1368C311.235 77.3236 311.328 77.5384 311.328 77.7813C311.328 78.0428 311.188 78.6032 310.908 79.4624C309.899 82.3764 309.077 85.1222 308.442 87.7C307.564 91.3798 306.649 95.9189 305.696 101.317C304.744 106.697 303.922 111.964 303.231 117.12C303.137 118.054 303.044 118.792 302.951 119.333C302.951 119.352 302.96 119.361 302.979 119.361C303.109 119.361 303.969 118.026 305.556 115.355C306.714 113.449 307.396 112.347 307.602 112.049C307.882 111.656 308.246 111.46 308.694 111.46C308.919 111.46 309.171 111.497 309.451 111.572C310.422 111.815 311.132 112.31 311.58 113.057L312.169 114.15C313.159 116.13 314.111 117.316 315.027 117.708C315.363 117.82 315.923 117.876 316.708 117.876C317.492 117.876 318.249 117.82 318.977 117.708C319.818 117.54 320.957 117.251 322.396 116.84C323.853 116.41 325.272 115.962 326.655 115.495C328.056 115.009 329.092 114.598 329.765 114.262C330.101 114.094 330.437 114.01 330.773 114.01C331.334 114.01 331.735 114.197 331.978 114.57C332.24 114.925 332.37 115.215 332.37 115.439C332.37 115.812 331.904 116.177 330.97 116.532C330.316 116.886 328.821 117.503 326.486 118.381C323.367 119.576 320.733 120.174 318.585 120.174C317.651 120.174 316.876 120.118 316.26 120.006C315.643 119.894 315.008 119.688 314.354 119.389C312.673 118.698 311.291 117.615 310.207 116.139C309.871 115.654 309.656 115.411 309.563 115.411C309.414 115.411 309.133 115.71 308.722 116.307L306.593 119.474C304.837 122.033 303.52 124.34 302.642 126.394C302.194 127.478 301.97 128.225 301.97 128.636C301.97 128.972 301.923 129.215 301.83 129.364C301.643 129.682 301.213 129.859 300.541 129.897ZM343.97 120.062C343.074 120.062 342.345 120.006 341.785 119.894C341.243 119.782 340.645 119.558 339.992 119.221C338.292 118.343 337.255 117.195 336.882 115.775C336.788 115.383 336.713 115.187 336.657 115.187C336.601 115.187 336.359 115.411 335.929 115.859C334.696 117.129 333.594 118.484 332.623 119.922L331.894 119.95C331.539 119.95 331.166 119.866 330.773 119.698C329.839 119.305 329.372 118.829 329.372 118.269C329.372 117.671 329.475 116.886 329.681 115.915C330.073 114.122 330.372 113.048 330.577 112.693C330.671 112.525 330.885 112.441 331.222 112.441C331.483 112.441 331.819 112.525 332.23 112.693C332.641 112.861 333.006 113.057 333.323 113.281C333.398 113.337 333.482 113.365 333.575 113.365C333.631 113.365 333.79 113.272 334.052 113.085C334.874 112.394 335.714 112.049 336.573 112.049C337.32 112.049 338.068 112.31 338.815 112.833C339.301 113.113 339.646 113.468 339.852 113.898C340.076 114.327 340.262 115.009 340.412 115.943C340.58 117.083 340.851 117.69 341.224 117.764C341.337 117.783 341.505 117.792 341.729 117.792C345.558 117.792 351.125 116.513 358.428 113.954C358.858 113.786 359.185 113.702 359.409 113.702C360.025 113.814 360.464 114.085 360.726 114.514C361.006 114.925 361.146 115.28 361.146 115.579C361.071 115.766 360.53 116.018 359.521 116.335C355.972 117.55 352.974 118.474 350.527 119.109C348.08 119.744 345.894 120.062 343.97 120.062ZM362.575 122.079C362.164 122.079 361.772 122.005 361.398 121.855C359.381 120.884 358.372 119.53 358.372 117.792C358.372 117.568 358.391 117.353 358.428 117.148C358.466 116.924 358.503 116.69 358.54 116.447C358.559 116.205 358.568 115.999 358.568 115.831C358.624 114.953 359.063 114.103 359.885 113.281C360.726 112.459 361.716 111.899 362.855 111.6C363.229 111.507 363.602 111.46 363.976 111.46C364.947 111.46 365.881 111.787 366.778 112.441C367.712 113.076 368.347 113.786 368.683 114.57C368.945 115.243 369.626 115.85 370.728 116.391C371.737 116.914 373.157 117.176 374.987 117.176C377.565 117.176 381.506 116.13 386.811 114.038C388.026 113.59 388.726 113.365 388.913 113.365C389.1 113.365 389.286 113.477 389.473 113.702C389.697 113.926 389.893 114.262 390.062 114.71C390.174 115.047 390.23 115.317 390.23 115.523C390.23 115.71 390.174 115.878 390.062 116.027C389.968 116.158 389.548 116.363 388.801 116.644C384.505 118.306 381.301 119.343 379.19 119.754C377.957 119.978 376.809 120.09 375.744 120.09C373.577 120.09 371.7 119.567 370.112 118.521C369.682 118.241 369.365 118.007 369.159 117.82C368.973 117.634 368.842 117.54 368.767 117.54L368.403 118.157C368.029 118.773 367.432 119.427 366.61 120.118C365.041 121.426 363.696 122.079 362.575 122.079ZM361.622 119.361C361.678 119.361 361.8 119.315 361.987 119.221C362.192 119.109 362.426 118.988 362.687 118.857C363.21 118.521 363.733 118.101 364.256 117.596C365.358 116.569 365.909 115.616 365.909 114.738C365.909 114.421 365.872 114.243 365.797 114.206C365.722 114.15 365.61 114.122 365.461 114.122C365.143 114.122 364.779 114.197 364.368 114.346C363.864 114.514 363.528 114.738 363.359 115.019C362.127 116.812 361.51 118.194 361.51 119.165C361.51 119.296 361.548 119.361 361.622 119.361ZM385.41 156.655C385.037 156.655 384.785 156.589 384.654 156.459C384.523 156.328 384.458 155.842 384.458 155.002C384.458 148.912 385.233 137.667 386.783 121.267C387.176 117.064 387.409 114.682 387.484 114.122C387.54 113.562 387.615 112.87 387.708 112.049C389.277 96.8435 391.771 82.6099 395.189 69.3475C396.796 63.1273 397.786 59.7744 398.159 59.2887C398.309 59.158 398.505 59.0926 398.748 59.0926C399.476 59.0926 400.12 59.3448 400.681 59.8491C400.924 60.0546 401.045 60.2414 401.045 60.4095C401.045 61.1753 400.074 65.3315 398.131 72.8779C397.178 76.5951 396.123 81.4518 394.965 87.4478C393.265 96.2271 391.976 104.651 391.098 112.721C390.332 119.184 389.828 123.957 389.585 127.039L388.689 137.041C388.035 144.233 387.68 149.594 387.624 153.124C387.587 154.974 387.549 155.945 387.512 156.038C387.418 156.15 387.222 156.262 386.923 156.375C386.4 156.561 385.896 156.655 385.41 156.655ZM400.345 122.079C399.934 122.079 399.541 122.005 399.168 121.855C397.15 120.884 396.142 119.53 396.142 117.792C396.142 117.568 396.16 117.353 396.198 117.148C396.235 116.924 396.272 116.69 396.31 116.447C396.329 116.205 396.338 115.999 396.338 115.831C396.394 114.953 396.833 114.103 397.655 113.281C398.495 112.459 399.485 111.899 400.625 111.6C400.998 111.507 401.372 111.46 401.746 111.46C402.717 111.46 403.651 111.787 404.547 112.441C405.481 113.076 406.116 113.786 406.453 114.57C406.714 115.243 407.396 115.85 408.498 116.391C409.507 116.914 410.926 117.176 412.757 117.176C415.335 117.176 419.276 116.13 424.581 114.038C425.795 113.59 426.496 113.365 426.682 113.365C426.869 113.365 427.056 113.477 427.243 113.702C427.467 113.926 427.663 114.262 427.831 114.71C427.943 115.047 427.999 115.317 427.999 115.523C427.999 115.71 427.943 115.878 427.831 116.027C427.738 116.158 427.318 116.363 426.57 116.644C422.274 118.306 419.071 119.343 416.96 119.754C415.727 119.978 414.578 120.09 413.514 120.09C411.347 120.09 409.469 119.567 407.882 118.521C407.452 118.241 407.135 118.007 406.929 117.82C406.742 117.634 406.612 117.54 406.537 117.54L406.173 118.157C405.799 118.773 405.201 119.427 404.379 120.118C402.81 121.426 401.465 122.079 400.345 122.079ZM399.392 119.361C399.448 119.361 399.569 119.315 399.756 119.221C399.962 119.109 400.195 118.988 400.457 118.857C400.98 118.521 401.503 118.101 402.026 117.596C403.128 116.569 403.679 115.616 403.679 114.738C403.679 114.421 403.641 114.243 403.567 114.206C403.492 114.15 403.38 114.122 403.231 114.122C402.913 114.122 402.549 114.197 402.138 114.346C401.633 114.514 401.297 114.738 401.129 115.019C399.896 116.812 399.28 118.194 399.28 119.165C399.28 119.296 399.317 119.361 399.392 119.361ZM419.145 177.585C418.79 177.585 418.389 177.492 417.941 177.305C417.399 177.062 417.016 176.782 416.792 176.464C416.512 176.091 416.371 175.568 416.371 174.895C416.371 172.28 417.567 167.778 419.958 161.39C422.442 154.777 425.515 147.988 429.176 141.02C429.942 139.619 430.4 138.676 430.549 138.19L430.801 137.126C431.754 132.512 432.23 128.243 432.23 124.321C432.23 122.864 432.193 121.584 432.118 120.482C432.062 119.698 431.997 119.305 431.922 119.305C431.829 119.305 431.343 119.595 430.465 120.174C429.438 120.865 428.7 121.332 428.252 121.575C427.822 121.818 427.383 121.939 426.935 121.939C426.113 121.939 425.3 121.482 424.497 120.566C424.105 120.118 423.909 119.576 423.909 118.941C423.909 117.652 424.665 115.99 426.178 113.954C427.56 112.179 428.831 111.292 429.989 111.292C430.362 111.292 430.727 111.385 431.081 111.572C431.735 111.946 432.174 112.403 432.398 112.945C432.473 113.113 432.51 113.253 432.51 113.365C432.51 113.608 432.333 113.73 431.978 113.73C431.53 113.73 430.941 114.094 430.213 114.822C429.354 115.682 428.569 116.728 427.859 117.961C429.017 117.157 429.783 116.672 430.157 116.504C430.549 116.317 430.895 116.223 431.193 116.223C431.735 116.242 432.305 116.457 432.903 116.868C433.519 117.279 433.995 117.783 434.332 118.381C434.668 118.979 434.892 119.866 435.004 121.043C435.135 122.201 435.2 123.639 435.2 125.358L435.144 130.485C437.33 126.936 439.02 124.283 440.216 122.528C442.7 118.848 444.484 116.765 445.567 116.279C445.941 116.074 446.445 115.971 447.08 115.971C447.622 115.971 448.435 116.018 449.518 116.111C450.508 116.186 451.489 116.223 452.46 116.223C454.365 116.223 456.214 116.074 458.008 115.775C460.081 115.42 462.07 115.028 463.976 114.598C465.9 114.15 467.161 113.814 467.758 113.59C467.964 113.477 468.132 113.421 468.263 113.421C468.393 113.421 468.552 113.487 468.739 113.618C469.057 113.767 469.346 114 469.608 114.318C469.981 114.822 470.168 115.261 470.168 115.635C470.168 115.784 470.121 115.896 470.028 115.971C469.617 116.233 468.347 116.625 466.217 117.148C464.088 117.652 461.753 118.138 459.213 118.605C457.756 118.848 456.214 118.969 454.589 118.969C453.506 118.969 452.376 118.913 451.199 118.801C449.835 118.67 448.976 118.605 448.621 118.605C448.192 118.605 447.846 118.68 447.585 118.829C445.511 119.819 440.897 126.777 433.743 139.703C431.502 150.276 428.504 159.98 424.749 168.815C422.694 173.672 421.097 176.53 419.958 177.389C419.715 177.52 419.444 177.585 419.145 177.585ZM420.49 169.936C420.528 169.936 420.826 169.254 421.387 167.89C421.686 167.087 422.059 166.106 422.508 164.948C422.937 163.79 423.367 162.632 423.796 161.474C424.207 160.316 424.553 159.345 424.833 158.56C425.095 157.776 425.225 157.355 425.225 157.299C425.207 157.299 424.843 158.121 424.133 159.765C421.929 165.219 420.714 168.61 420.49 169.936ZM473.698 122.135C473.586 122.135 473.418 122.126 473.194 122.107C472.989 122.07 472.774 122.042 472.55 122.023C472.101 121.949 471.56 121.79 470.924 121.547C470.308 121.304 469.785 121.052 469.355 120.79C468.59 120.286 467.992 119.632 467.562 118.829C467.357 118.399 467.254 117.979 467.254 117.568C467.254 116.037 467.562 114.785 468.179 113.814C468.421 113.515 468.795 113.365 469.299 113.365C469.748 113.365 470.215 113.477 470.7 113.702C471.56 114.113 471.989 114.514 471.989 114.906C471.989 115.019 471.933 115.187 471.821 115.411C471.41 116.494 471.205 117.456 471.205 118.297C471.205 119.324 471.504 119.838 472.101 119.838C474.007 119.838 478.209 118.624 484.71 116.195C486.895 115.392 488.399 114.785 489.221 114.374C489.725 114.131 490.136 114.01 490.454 114.01C490.79 114.01 491.126 114.159 491.462 114.458C491.817 114.925 491.995 115.299 491.995 115.579C491.995 116.177 488.511 117.708 481.544 120.174C477.901 121.482 475.286 122.135 473.698 122.135ZM471.121 110.704C470.504 110.704 469.953 110.311 469.467 109.527C469.243 109.172 469.131 108.864 469.131 108.602C469.131 108.397 469.262 108.257 469.523 108.182C469.804 108.088 471.326 107.78 474.091 107.257C474.67 107.126 475.043 107.061 475.211 107.061C475.436 107.061 475.706 107.22 476.024 107.537C476.566 108.023 476.883 108.574 476.977 109.191C476.977 109.433 476.696 109.63 476.136 109.779C475.706 109.891 475.043 110.031 474.147 110.199C472.578 110.535 471.569 110.704 471.121 110.704ZM498.495 121.855H497.542C494.18 121.855 491.855 120.762 490.566 118.577C489.949 117.531 489.641 116.56 489.641 115.663C489.641 114.953 489.856 114.187 490.286 113.365C490.566 112.842 490.902 112.366 491.294 111.936C492.508 110.685 493.816 110.059 495.217 110.059C496.02 110.059 496.851 110.265 497.711 110.676C498.271 110.956 498.785 111.348 499.252 111.852C499.924 112.6 500.26 113.319 500.26 114.01C500.26 114.813 499.607 115.523 498.299 116.139C496.412 117.073 494.797 117.54 493.452 117.54C493.284 117.54 492.873 117.503 492.219 117.428V117.764C492.219 118.586 493.592 118.997 496.338 118.997C500.298 118.997 506.966 117.699 516.343 115.103C518.435 114.524 519.771 114.122 520.35 113.898C520.686 113.786 520.985 113.73 521.247 113.73C521.751 113.73 522.134 114.038 522.395 114.654C522.582 115.084 522.676 115.42 522.676 115.663C522.676 115.906 522.591 116.111 522.423 116.279C521.732 116.858 517.324 118.157 509.198 120.174C506.695 120.809 504.678 121.248 503.146 121.491C501.615 121.715 500.064 121.836 498.495 121.855ZM493.508 114.71L494.6 114.374C496.057 113.907 497.075 113.412 497.655 112.889H496.702C495.936 112.889 495.123 113.216 494.264 113.87C494.096 113.982 493.947 114.103 493.816 114.234C493.685 114.365 493.592 114.467 493.536 114.542C493.498 114.617 493.48 114.664 493.48 114.682C493.48 114.701 493.489 114.71 493.508 114.71ZM523.684 122.724C523.03 122.724 522.386 122.388 521.751 121.715C521.452 121.398 521.303 121.136 521.303 120.931C521.303 120.688 521.471 120.211 521.807 119.502C522.199 118.717 522.395 118.091 522.395 117.624C522.395 117.381 522.358 117.195 522.283 117.064C522.209 116.933 522.068 116.746 521.863 116.504C521.658 116.261 521.433 116.009 521.191 115.747C520.201 114.701 519.706 113.786 519.706 113.001C519.706 112.534 519.892 112.086 520.266 111.656C520.471 111.357 520.78 111.208 521.191 111.208C521.788 111.208 522.395 111.423 523.012 111.852C523.647 112.263 523.964 112.693 523.964 113.141C523.964 113.384 523.815 113.73 523.516 114.178C523.385 114.346 523.32 114.514 523.32 114.682C523.32 114.85 523.619 115.271 524.217 115.943C524.758 116.522 525.132 117.027 525.337 117.456C525.655 117.942 525.832 118.185 525.87 118.185C525.944 118.185 528.438 117.316 533.351 115.579C537.628 114.047 539.926 113.281 540.243 113.281C540.71 113.505 541.037 113.72 541.224 113.926C541.71 114.467 541.953 114.934 541.953 115.327C541.953 115.457 541.915 115.56 541.841 115.635C541.448 115.84 540.169 116.326 538.002 117.092C532.043 119.221 527.962 120.837 525.758 121.939C524.712 122.462 524.02 122.724 523.684 122.724Z" fill="#FF3D00"/>
</svg>
